# xmcd
#
# Track frame offsets:
#	150
#	14044
#	32436
#	52568
#	72016
#	91781
#	111975
#	133191
#	154891
#	177446
#	203481
#	226744
#	250193
#	264807
#	282915
#	302652
#
# Disc length: 4346 seconds
#
# Revision: 0
# Processed by: cddbd v1.4PL0 Copyright (c) Steve Scherf et al.
# Submitted via: dBpowerAMP V4.0
#
DISCID=c810f810
DTITLE=Soopafly - Dat Whoopty Woop
DYEAR=2001
DGENRE=Hip-Hop
TTITLE0=Yall niggaz betta recognize
TTITLE1=This type is flow
TTITLE2=Hell ya
TTITLE3=Can I git bucc
TTITLE4=Way 2 often
TTITLE5=Everyday
TTITLE6=There will never be anotha
TTITLE7=BACC 2 L.A.
TTITLE8=Like it or not
TTITLE9=Dat Whoopty Woop
TTITLE10=Pimp City
TTITLE11=Phone conversation
TTITLE12=Playin games
TTITLE13=Why you wanna act this way
TTITLE14=Freak Freak
TTITLE15=Baby Boy
EXTD=
EXTT0=
EXTT1=
EXTT2=
EXTT3=
EXTT4=
EXTT5=
EXTT6=
EXTT7=
EXTT8=
EXTT9=
EXTT10=
EXTT11=
EXTT12=
EXTT13=
EXTT14=
EXTT15=
PLAYORDER=
